<svg width="32" height="32" viewBox="0 0 32 32" fill="none" xmlns="http://www.w3.org/2000/svg">
<path d="M16 25.3333V29.3333H6.66667C5.95942 29.3333 5.28115 29.0524 4.78105 28.5523C4.28095 28.0522 4 27.3739 4 26.6667V16C4 14.5333 5.2 13.3333 6.66667 13.3333H16V17.3333C15.4138 17.3344 14.8444 17.5285 14.3796 17.8857C13.9149 18.2429 13.5808 18.7433 13.429 19.3095C13.2772 19.8756 13.3162 20.476 13.5399 21.0178C13.7636 21.5596 14.1596 22.0125 14.6667 22.3067V24C14.6667 24.3536 14.8071 24.6928 15.0572 24.9428C15.3072 25.1929 15.6464 25.3333 16 25.3333Z" fill="#FF8CBA"/>
<path d="M16 25.3333C16.3536 25.3333 16.6928 25.1929 16.9428 24.9428C17.1929 24.6928 17.3333 24.3536 17.3333 24V22.3067C17.8404 22.0126 18.2364 21.5596 18.4601 21.0178C18.6838 20.476 18.7228 19.8756 18.571 19.3095C18.4192 18.7433 18.0851 18.2429 17.6204 17.8857C17.1556 17.5285 16.5862 17.3344 16 17.3333V13.3333H25.3333C26.0406 13.3333 26.7189 13.6143 27.219 14.1144C27.7191 14.6145 28 15.2928 28 16V26.6667C28 27.3739 27.7191 28.0522 27.219 28.5523C26.7189 29.0524 26.0406 29.3333 25.3333 29.3333H16V25.3333ZM22.6667 9.33333C22.6667 9.68695 22.5262 10.0261 22.2761 10.2761C22.0261 10.5262 21.687 10.6667 21.3333 10.6667C20.9797 10.6667 20.6406 10.5262 20.3905 10.2761C20.1405 10.0261 20 9.68695 20 9.33333C20 8.27247 19.5786 7.25505 18.8284 6.5049C18.0783 5.75476 17.0609 5.33333 16 5.33333C14.9391 5.33333 13.9217 5.75476 13.1716 6.5049C12.4214 7.25505 12 8.27247 12 9.33333V13.3333H9.33334V9.33333C9.33334 7.56522 10.0357 5.86953 11.286 4.61929C12.5362 3.36904 14.2319 2.66666 16 2.66666C17.7681 2.66666 19.4638 3.36904 20.714 4.61929C21.9643 5.86953 22.6667 7.56522 22.6667 9.33333Z" fill="#620042"/>
</svg>
