<svg width="32" height="32" viewBox="0 0 32 32" fill="none" xmlns="http://www.w3.org/2000/svg">
<path fill-rule="evenodd" clip-rule="evenodd" d="M5.33333 6.66666H26.6667C27.0203 6.66666 27.3594 6.80713 27.6095 7.05718C27.8595 7.30723 28 7.64637 28 7.99999C28 8.35361 27.8595 8.69275 27.6095 8.9428C27.3594 9.19285 27.0203 9.33332 26.6667 9.33332H5.33333C4.97971 9.33332 4.64057 9.19285 4.39052 8.9428C4.14048 8.69275 4 8.35361 4 7.99999C4 7.64637 4.14048 7.30723 4.39052 7.05718C4.64057 6.80713 4.97971 6.66666 5.33333 6.66666ZM5.33333 14.6667H26.6667C27.0203 14.6667 27.3594 14.8071 27.6095 15.0572C27.8595 15.3072 28 15.6464 28 16C28 16.3536 27.8595 16.6927 27.6095 16.9428C27.3594 17.1928 27.0203 17.3333 26.6667 17.3333H5.33333C4.97971 17.3333 4.64057 17.1928 4.39052 16.9428C4.14048 16.6927 4 16.3536 4 16C4 15.6464 4.14048 15.3072 4.39052 15.0572C4.64057 14.8071 4.97971 14.6667 5.33333 14.6667ZM5.33333 22.6667H26.6667C27.0203 22.6667 27.3594 22.8071 27.6095 23.0572C27.8595 23.3072 28 23.6464 28 24C28 24.3536 27.8595 24.6928 27.6095 24.9428C27.3594 25.1928 27.0203 25.3333 26.6667 25.3333H5.33333C4.97971 25.3333 4.64057 25.1928 4.39052 24.9428C4.14048 24.6928 4 24.3536 4 24C4 23.6464 4.14048 23.3072 4.39052 23.0572C4.64057 22.8071 4.97971 22.6667 5.33333 22.6667Z" fill="#1F2933"/>
</svg>
