<svg width="48" height="48" viewBox="0 0 48 48" fill="none" xmlns="http://www.w3.org/2000/svg">
<path d="M24 20V26C23.1208 26.0016 22.2665 26.2928 21.5694 26.8286C20.8723 27.3644 20.3712 28.1149 20.1435 28.9642C19.9158 29.8134 19.9743 30.714 20.3099 31.5267C20.6455 32.3394 21.2395 33.0188 22 33.46V36C22 36.5304 22.2107 37.0391 22.5858 37.4142C22.9609 37.7893 23.4696 38 24 38V44H10C8.93913 44 7.92172 43.5786 7.17157 42.8284C6.42143 42.0783 6 41.0609 6 40V24C6 21.8 7.8 20 10 20H24Z" fill="#FF8CBA"/>
<path d="M24 38C24.5304 38 25.0391 37.7893 25.4142 37.4142C25.7893 37.0391 26 36.5304 26 36V33.46C26.7605 33.0188 27.3545 32.3394 27.6901 31.5267C28.0257 30.714 28.0842 29.8134 27.8565 28.9642C27.6288 28.1149 27.1277 27.3644 26.4306 26.8286C25.7335 26.2928 24.8792 26.0016 24 26V20H30V14C30 12.4087 29.3679 10.8826 28.2426 9.75736C27.1174 8.63214 25.5913 8 24 8C22.4087 8 20.8826 8.63214 19.7574 9.75736C18.6321 10.8826 18 12.4087 18 14V20H14V14C14 11.3478 15.0536 8.8043 16.9289 6.92893C18.8043 5.05357 21.3478 4 24 4C26.6522 4 29.1957 5.05357 31.0711 6.92893C32.9464 8.8043 34 11.3478 34 14V20H38C39.0609 20 40.0783 20.4214 40.8284 21.1716C41.5786 21.9217 42 22.9391 42 24V40C42 41.0609 41.5786 42.0783 40.8284 42.8284C40.0783 43.5786 39.0609 44 38 44H24V38Z" fill="#620042"/>
</svg>
