<svg width="32" height="32" viewBox="0 0 32 32" fill="none" xmlns="http://www.w3.org/2000/svg">
<path fill-rule="evenodd" clip-rule="evenodd" d="M20.4 13.7333C20.6568 13.5408 20.9744 13.4473 21.2945 13.47C21.6147 13.4928 21.9159 13.6303 22.1428 13.8572C22.3698 14.0841 22.5072 14.3853 22.53 14.7055C22.5527 15.0256 22.4593 15.3432 22.2667 15.6L16.9333 20.9333C16.6841 21.1776 16.349 21.3145 16 21.3145C15.651 21.3145 15.3159 21.1776 15.0667 20.9333L9.73334 15.6C9.54077 15.3432 9.44728 15.0256 9.47003 14.7055C9.49278 14.3853 9.63025 14.0841 9.8572 13.8572C10.0841 13.6303 10.3853 13.4928 10.7055 13.47C11.0256 13.4473 11.3432 13.5408 11.6 13.7333L16 18.12L20.4 13.72V13.7333Z" fill="#1F2933"/>
</svg>
