<svg width="48" height="48" viewBox="0 0 48 48" fill="none" xmlns="http://www.w3.org/2000/svg">
<path d="M42 26L10.06 26L7.81997 24L4.17997 6.8C4.01344 6.42377 3.967 6.00534 4.04697 5.60175C4.12694 5.19815 4.32944 4.82905 4.62686 4.54475C4.92428 4.26045 5.30214 4.0748 5.70893 4.01311C6.11572 3.95141 6.53164 4.01668 6.89997 4.2L42.9 22.2C43.2343 22.3659 43.515 22.6228 43.7096 22.9413C43.9043 23.2598 44.0049 23.6268 44 24L42 26Z" fill="#FF8CBA"/>
<path d="M44.0001 24C44.0001 24.72 43.6401 25.42 42.9001 25.8L6.90006 43.8C6.53172 43.9833 6.11581 44.0486 5.70902 43.9869C5.30223 43.9252 4.92437 43.7396 4.62695 43.4553C4.32953 43.171 4.12703 42.8018 4.04706 42.3983C3.96708 41.9947 4.01353 41.5762 4.18006 41.2L7.80006 24L44.0001 24Z" fill="#620042"/>
</svg>
