<svg width="24" height="24" viewBox="0 0 24 24" fill="none" xmlns="http://www.w3.org/2000/svg">
<path d="M5.00001 7.99999C5.00153 6.77751 5.32317 5.57674 5.93293 4.51719C6.54268 3.45764 7.41929 2.57624 8.47551 1.96073C9.53173 1.34521 10.7307 1.01703 11.9532 1.00885C13.1756 1.00068 14.3789 1.31278 15.4433 1.91412C16.5076 2.51545 17.3959 3.38504 18.0198 4.43634C18.6437 5.48764 18.9814 6.68399 18.9993 7.90634C19.0171 9.12869 18.7146 10.3344 18.1217 11.4035C17.5288 12.4726 16.6663 13.3678 15.62 14L14.98 17.2C14.9339 17.4259 14.8112 17.6289 14.6326 17.7747C14.454 17.9204 14.2305 18 14 18H10C9.76947 18 9.54601 17.9204 9.36742 17.7747C9.18884 17.6289 9.06611 17.4259 9.02001 17.2L8.38001 14C7.34727 13.376 6.49336 12.4957 5.90114 11.4444C5.30893 10.3931 4.99851 9.2066 5.00001 7.99999ZM17 7.99999C17 6.67391 16.4732 5.40214 15.5355 4.46445C14.5979 3.52677 13.3261 2.99999 12 2.99999C11.7348 2.99999 11.4804 3.10534 11.2929 3.29288C11.1054 3.48042 11 3.73477 11 3.99999C11 4.2652 11.1054 4.51956 11.2929 4.70709C11.4804 4.89463 11.7348 4.99999 12 4.99999C12.7957 4.99999 13.5587 5.31606 14.1213 5.87867C14.6839 6.44128 15 7.20434 15 7.99999C15 8.2652 15.1054 8.51956 15.2929 8.70709C15.4804 8.89463 15.7348 8.99999 16 8.99999C16.2652 8.99999 16.5196 8.89463 16.7071 8.70709C16.8946 8.51956 17 8.2652 17 7.99999Z" fill="#9AA5B1"/>
<path d="M15 21C15 21.5304 14.7893 22.0391 14.4142 22.4142C14.0391 22.7893 13.5304 23 13 23H11C10.4696 23 9.96086 22.7893 9.58579 22.4142C9.21071 22.0391 9 21.5304 9 21C8.73478 21 8.48043 20.8946 8.29289 20.7071C8.10536 20.5196 8 20.2652 8 20C8 19.7348 8.10536 19.4804 8.29289 19.2929C8.48043 19.1054 8.73478 19 9 19H15C15.2652 19 15.5196 19.1054 15.7071 19.2929C15.8946 19.4804 16 19.7348 16 20C16 20.2652 15.8946 20.5196 15.7071 20.7071C15.5196 20.8946 15.2652 21 15 21Z" fill="#A30664"/>
</svg>
