<svg width="48" height="48" viewBox="0 0 48 48" fill="none" xmlns="http://www.w3.org/2000/svg">
<path d="M46.5 13.5C45.6715 13.5 45 12.8284 45 12V4.3125C45 3.58875 44.4112 3 43.6875 3H36C35.1715 3 34.5 2.32838 34.5 1.5C34.5 0.671625 35.1715 0 36 0H43.6875C46.0654 0 48 1.93462 48 4.3125V12C48 12.8284 47.3285 13.5 46.5 13.5Z" fill="#620042"/>
<path d="M1.5 13.5C0.671531 13.5 0 12.8284 0 12V4.3125C0 1.93462 1.93462 0 4.3125 0H12C12.8285 0 13.5 0.671625 13.5 1.5C13.5 2.32838 12.8285 3 12 3H4.3125C3.58875 3 3 3.58875 3 4.3125V12C3 12.8284 2.32847 13.5 1.5 13.5Z" fill="#620042"/>
<path d="M12 48H4.3125C1.93462 48 0 46.0654 0 43.6875V36C0 35.1716 0.671531 34.5 1.5 34.5C2.32847 34.5 3 35.1716 3 36V43.6875C3 44.4112 3.58875 45 4.3125 45H12C12.8285 45 13.5 45.6716 13.5 46.5C13.5 47.3284 12.8285 48 12 48Z" fill="#620042"/>
<path d="M43.6875 48H36C35.1715 48 34.5 47.3284 34.5 46.5C34.5 45.6716 35.1715 45 36 45H43.6875C44.4112 45 45 44.4112 45 43.6875V36C45 35.1716 45.6715 34.5 46.5 34.5C47.3285 34.5 48 35.1716 48 36V43.6875C48 46.0654 46.0654 48 43.6875 48Z" fill="#620042"/>
<path d="M18.1875 22.5H10.3125C7.93462 22.5 6 20.5654 6 18.1875V10.3125C6 7.93462 7.93462 6 10.3125 6H18.1875C20.5654 6 22.5 7.93462 22.5 10.3125V18.1875C22.5 20.5654 20.5654 22.5 18.1875 22.5ZM10.3125 9C9.58875 9 9 9.58875 9 10.3125V18.1875C9 18.9112 9.58875 19.5 10.3125 19.5H18.1875C18.9112 19.5 19.5 18.9112 19.5 18.1875V10.3125C19.5 9.58875 18.9112 9 18.1875 9H10.3125Z" fill="#FF8CBA"/>
<path d="M18.1875 42H10.3125C7.93462 42 6 40.0654 6 37.6875V29.8125C6 27.4346 7.93462 25.5 10.3125 25.5H18.1875C20.5654 25.5 22.5 27.4346 22.5 29.8125V37.6875C22.5 40.0654 20.5654 42 18.1875 42ZM10.3125 28.5C9.58875 28.5 9 29.0888 9 29.8125V37.6875C9 38.4112 9.58875 39 10.3125 39H18.1875C18.9112 39 19.5 38.4112 19.5 37.6875V29.8125C19.5 29.0888 18.9112 28.5 18.1875 28.5H10.3125Z" fill="#FF8CBA"/>
<path d="M37.6875 22.5H29.8125C27.4346 22.5 25.5 20.5654 25.5 18.1875V10.3125C25.5 7.93462 27.4346 6 29.8125 6H37.6875C40.0654 6 42 7.93462 42 10.3125V18.1875C42 20.5654 40.0654 22.5 37.6875 22.5ZM29.8125 9C29.0888 9 28.5 9.58875 28.5 10.3125V18.1875C28.5 18.9112 29.0888 19.5 29.8125 19.5H37.6875C38.4112 19.5 39 18.9112 39 18.1875V10.3125C39 9.58875 38.4112 9 37.6875 9H29.8125Z" fill="#FF8CBA"/>
<path d="M39.5625 33H36V27.9375C36 26.5935 34.9066 25.5 33.5625 25.5H27.9375C26.5934 25.5 25.5 26.5935 25.5 27.9375V33.5625C25.5 34.9065 26.5934 36 27.9375 36H33V39.5625C33 40.9065 34.0934 42 35.4375 42H39.5625C40.9066 42 42 40.9065 42 39.5625V35.4375C42 34.0935 40.9066 33 39.5625 33ZM28.5 28.5H33V33H28.5V28.5ZM39 39H36V36H39V39Z" fill="#FF8CBA"/>
<path d="M15 16.5H13.5C12.6715 16.5 12 15.8284 12 15V13.5C12 12.6716 12.6715 12 13.5 12H15C15.8285 12 16.5 12.6716 16.5 13.5V15C16.5 15.8284 15.8285 16.5 15 16.5Z" fill="#620042"/>
<path d="M34.5 16.5H33C32.1715 16.5 31.5 15.8284 31.5 15V13.5C31.5 12.6716 32.1715 12 33 12H34.5C35.3285 12 36 12.6716 36 13.5V15C36 15.8284 35.3285 16.5 34.5 16.5Z" fill="#620042"/>
<path d="M15 36H13.5C12.6715 36 12 35.3284 12 34.5V33C12 32.1716 12.6715 31.5 13.5 31.5H15C15.8285 31.5 16.5 32.1716 16.5 33V34.5C16.5 35.3284 15.8285 36 15 36Z" fill="#620042"/>
</svg>
