<svg width="32" height="32" viewBox="0 0 32 32" fill="none" xmlns="http://www.w3.org/2000/svg">
<path d="M16 29.3333C23.3638 29.3333 29.3334 23.3638 29.3334 16C29.3334 8.63619 23.3638 2.66666 16 2.66666C8.63622 2.66666 2.66669 8.63619 2.66669 16C2.66669 23.3638 8.63622 29.3333 16 29.3333Z" fill="#FF8CBA"/>
<path d="M12.5467 14.6667H22.6667C23.0203 14.6667 23.3595 14.8071 23.6095 15.0572C23.8596 15.3072 24 15.6464 24 16C24 16.3536 23.8596 16.6928 23.6095 16.9428C23.3595 17.1929 23.0203 17.3333 22.6667 17.3333H12.5467L15.6134 20.4C15.752 20.5205 15.8643 20.6684 15.9431 20.8344C16.0219 21.0004 16.0655 21.1808 16.0713 21.3645C16.077 21.5481 16.0448 21.731 15.9765 21.9015C15.9083 22.0721 15.8055 22.2268 15.6747 22.3557C15.5439 22.4847 15.3878 22.5853 15.2163 22.6511C15.0447 22.7169 14.8614 22.7466 14.6779 22.7382C14.4944 22.7299 14.3145 22.6837 14.1497 22.6025C13.9849 22.5214 13.8386 22.407 13.72 22.2667L8.3867 16.9333C8.14239 16.6841 8.00555 16.349 8.00555 16C8.00555 15.651 8.14239 15.3159 8.3867 15.0667L13.72 9.73334C13.9735 9.51297 14.3009 9.39639 14.6366 9.40692C14.9723 9.41745 15.2917 9.55431 15.5309 9.79013C15.7701 10.0259 15.9115 10.3434 15.9267 10.6789C15.942 11.0145 15.8301 11.3434 15.6134 11.6L12.5334 14.6667H12.5467Z" fill="#F5F7FA"/>
</svg>
