<svg width="140" height="140" viewBox="0 0 140 140" fill="none" xmlns="http://www.w3.org/2000/svg">
<path d="M70 140C108.66 140 140 108.66 140 70C140 31.3401 108.66 0 70 0C31.3401 0 0 31.3401 0 70C0 108.66 31.3401 140 70 140Z" fill="#FF93CD"/>
<path d="M70 19.7C49.2 19.7 32.2 36.6 32.2 57.5C32.2 61.7 32.9 65.8 34.2 69.8C35.1 72.5 38.1 74 40.9 73.1C43.6 72.2 45.1 69.2 44.2 66.4C43.1 63.3 42.6 60 42.7 56.7C43.1 42.6 54.5 31 68.6 30.3C84.3 29.5 97.3 42 97.3 57.5C97.3 72 85.9 83.9 71.6 84.7C71.6 84.7 66.3 85 63.7 85.4C62.4 85.6 61.4 85.8 60.7 85.9C60.4 86 60.1 85.7 60.2 85.4L61.1 81L66 58.4C66.6 55.6 64.8 52.8 62 52.2C59.2 51.6 56.4 53.4 55.8 56.2C55.8 56.2 44 111.2 43.9 111.8C43.3 114.6 45.1 117.4 47.9 118C50.7 118.6 53.5 116.8 54.1 114C54.2 113.4 55.8 106.1 55.8 106.1C57 100.5 61.6 96.4 67 95.7C68.2 95.5 72.9 95.2 72.9 95.2C92.4 93.7 107.8 77.4 107.8 57.5C107.8 36.6 90.8 19.7 70 19.7Z" fill="black"/>
<path d="M72.7 106.7C69.3 106 65.9 108.1 65.2 111.6C64.5 115 66.6 118.4 70.1 119.1C73.5 119.8 76.9 117.7 77.6 114.2C78.3 110.7 76.2 107.4 72.7 106.7Z" fill="#E6007A"/>
</svg>
